<svg width="969" height="955" viewBox="0 0 969 955" fill="none" xmlns="http://www.w3.org/2000/svg">
<rect width="969" height="955" fill="white"/>
<circle cx="161.191" cy="332.736" r="133.191" stroke="black" stroke-width="20"/>
<circle cx="806.809" cy="332.736" r="133.191" stroke="black" stroke-width="20"/>
<circle cx="695.019" cy="600.278" r="31.4016" fill="black"/>
<circle cx="272.981" cy="600.278" r="31.4016" fill="black"/>
<path d="M564.388 724.628C564.388 756.538 526.035 792.455 483.372 792.455C440.709 792.455 402.356 756.538 402.356 724.628C402.356 692.717 440.709 676.897 483.372 676.897C526.035 676.897 564.388 692.717 564.388 724.628Z" fill="black"/>
<rect x="310.42" y="460.854" width="343.468" height="51.4986" fill="#FF1E1E"/>
<path fill-rule="evenodd" clip-rule="evenodd" d="M745.643 300.784C815.368 356.729 854.539 445.167 854.539 524.286H614.938V467.196C614.938 445.657 597.477 428.196 575.938 428.196H388.37C366.831 428.196 349.37 445.657 349.37 467.196V524.286L110.949 524.286C110.949 445.167 150.12 356.729 219.845 300.784C289.57 244.839 384.138 213.41 482.744 213.41C581.35 213.41 675.918 244.839 745.643 300.784Z" fill="black"/>
</svg>
