<svg width="969" height="955" viewBox="0 0 969 955" fill="none" xmlns="http://www.w3.org/2000/svg">

  <g clip-path="url(#clip0_422_2)">
    <path d="M525.413 226.812C525.413 341.124 433.223 433.625 319.707 433.625C206.19 433.625 114 341.124 114 226.812C114 112.501 206.19 20 319.707 20C433.223 20 525.413 112.501 525.413 226.812Z" stroke="var(--color)" stroke-width="40"/>
    <ellipse cx="495.916" cy="650.594" rx="49.4971" ry="49.7395" fill="var(--color)"/>
    <path d="M955.249 847.562C955.249 898.108 894.794 955 827.547 955C760.299 955 699.844 898.108 699.844 847.562C699.844 797.017 760.299 771.958 827.547 771.958C894.794 771.958 955.249 797.017 955.249 847.562Z" fill="var(--color)"/>
    <rect x="554.929" y="429.749" width="541.394" height="81.5729" fill="#FF1E1E"/>
    <path fill-rule="evenodd" clip-rule="evenodd" d="M1240.95 176.201C1350.86 264.817 1412.6 404.902 1412.6 530.223H1034.93V417.02C1034.93 395.481 1017.47 378.02 995.928 378.02H655.324C633.785 378.02 616.324 395.481 616.324 417.02V530.223L240.511 530.223C240.511 404.902 302.255 264.817 412.16 176.201C522.065 87.5855 671.128 37.8017 826.557 37.8018C981.986 37.8018 1131.05 87.5856 1240.95 176.201Z" fill="var(--color)"/>
  </g>
  <defs>
    <style>
      path, ellipse { --color: black; }
      @media (prefers-color-scheme: dark) { path, ellipse { --color: white; } }
    </style>
    <clipPath id="clip0_422_2">
      <rect width="969" height="955" />
    </clipPath>
  </defs>
</svg>
