<svg width="366" height="365" viewBox="0 0 366 365" fill="none" xmlns="http://www.w3.org/2000/svg">
<rect width="364.724" height="364.867" transform="translate(0.696922)" fill="white"/>
<path d="M86.3477 150.246C85.8775 151.663 85.2012 152.821 84.3188 153.72C83.4228 154.591 82.3915 155.159 81.2248 155.424C80.0445 155.662 78.7862 155.559 77.4498 155.116L67.7913 151.912C66.4347 151.462 65.3645 150.792 64.5806 149.903C63.8035 148.993 63.3263 147.925 63.1491 146.697C62.9584 145.443 63.0981 144.107 63.5683 142.689C64.0452 141.252 64.7282 140.107 65.6175 139.256C66.4932 138.378 67.5144 137.806 68.6811 137.541C69.8478 137.277 71.1095 137.369 72.4662 137.819L71.1967 141.646C70.1438 141.297 69.2499 141.315 68.5152 141.701C67.7871 142.066 67.2518 142.765 66.9093 143.798C66.5667 144.83 66.5747 145.721 66.9334 146.469C67.292 147.218 67.9877 147.763 69.0203 148.105L78.7092 151.319C79.7419 151.662 80.6357 151.644 81.3907 151.265C82.1255 150.879 82.6642 150.17 83.0067 149.138C83.3493 148.105 83.3379 147.224 82.9725 146.496C82.5936 145.741 81.8879 145.193 80.8552 144.85L82.1246 141.023C83.4408 141.46 84.4975 142.136 85.2949 143.052C86.0923 143.969 86.5897 145.044 86.7872 146.278C86.9711 147.486 86.8246 148.808 86.3477 150.246Z" fill="black"/>
<path d="M90.0664 139.412L86.9769 137.725L89.2314 133.597L74.9078 125.775L72.6533 129.904L69.5639 128.217L76.0052 116.421L79.0946 118.108L76.8401 122.236L91.1638 130.058L93.4182 125.929L96.5076 127.616L90.0664 139.412Z" fill="black"/>
<path d="M98.941 123.908L80.7671 109.232L85.4113 103.481C86.3897 102.269 87.4582 101.405 88.6167 100.887C89.7886 100.353 90.9822 100.165 92.1975 100.324C93.3963 100.469 94.5434 100.984 95.6388 101.869C96.8338 102.834 97.6398 103.992 98.0567 105.343C98.487 106.678 98.4775 108.014 98.0283 109.351L108.611 111.934L105.797 115.419L96.0236 112.75L94.2343 114.966L101.454 120.796L98.941 123.908ZM91.4958 112.755L93.6269 110.116C94.3372 109.236 94.6528 108.353 94.5736 107.466C94.4944 106.58 94.0315 105.795 93.1851 105.111C92.322 104.414 91.4488 104.12 90.5654 104.229C89.6654 104.325 88.8602 104.813 88.1498 105.693L86.0187 108.332L91.4958 112.755Z" fill="black"/>
<path d="M116.456 105.366C115.325 106.341 114.151 106.988 112.932 107.307C111.716 107.596 110.539 107.555 109.402 107.183C108.267 106.782 107.239 106.049 106.319 104.983L99.6712 97.2786C98.7374 96.1964 98.1622 95.0726 97.9454 93.9071C97.7448 92.7277 97.8833 91.5656 98.3608 90.4209C98.8405 89.2462 99.6456 88.171 100.776 87.1954C101.923 86.2058 103.096 85.5737 104.296 85.299C105.499 84.9942 106.668 85.0273 107.806 85.3984C108.943 85.7695 109.979 86.4961 110.913 87.5782L107.86 90.2124C107.135 89.3725 106.359 88.9297 105.53 88.8838C104.718 88.824 103.9 89.1495 103.076 89.8603C102.252 90.5711 101.802 91.3397 101.726 92.166C101.65 92.9924 101.968 93.8174 102.679 94.6411L109.348 102.37C110.058 103.193 110.835 103.636 111.678 103.698C112.506 103.744 113.332 103.411 114.156 102.701C114.98 101.99 115.421 101.228 115.481 100.416C115.543 99.5734 115.219 98.7403 114.508 97.9166L117.561 95.2824C118.467 96.3323 119.027 97.455 119.241 98.6506C119.456 99.8462 119.331 101.024 118.868 102.185C118.406 103.316 117.602 104.376 116.456 105.366Z" fill="black"/>
<path d="M131.776 94.4721C129.81 95.6309 127.952 96.0075 126.202 95.602C124.461 95.1674 123.043 94.0218 121.949 92.1654L113.47 77.7736L116.944 75.7269L125.407 90.0911C125.97 91.0469 126.648 91.6505 127.439 91.902C128.231 92.1534 129.087 92.0084 130.006 91.467C130.907 90.9363 131.439 90.2637 131.603 89.4491C131.785 88.6237 131.594 87.7331 131.031 86.7773L122.568 72.4131L126.042 70.3663L134.521 84.7581C135.615 86.6146 135.93 88.4099 135.466 90.1441C134.991 91.8599 133.762 93.3026 131.776 94.4721Z" fill="black"/>
<path d="M142.261 88.6681L134.187 66.7478L137.94 65.3653L144.731 83.8024L154.04 80.3738L155.323 83.857L142.261 88.6681Z" fill="black"/>
<path d="M157.495 83.3263L159.265 59.3008L164.34 58.412L174.201 80.4004L170.166 81.107L167.928 75.7488L161.813 76.8198L161.53 82.6197L157.495 83.3263ZM161.975 73.4778L166.64 72.6607L164.171 66.7257C163.76 65.7365 163.398 64.8468 163.087 64.0568C162.771 63.2457 162.549 62.6565 162.42 62.2893C162.423 62.6786 162.414 63.3082 162.393 64.1782C162.39 65.0235 162.35 65.9726 162.275 67.0254L161.975 73.4778Z" fill="black"/>
<path d="M176.175 80.4188L176.318 57.0593L183.71 57.1046C185.267 57.1142 186.609 57.4104 187.737 57.9933C188.885 58.5764 189.776 59.3925 190.41 60.4418C191.043 61.4697 191.356 62.6876 191.347 64.0956C191.338 65.6316 190.935 66.9838 190.138 68.1522C189.363 69.3208 188.313 70.1464 186.987 70.629L191.566 80.5132L187.087 80.4858L183.08 71.181L180.232 71.1635L180.175 80.4434L176.175 80.4188ZM180.253 67.6436L183.645 67.6644C184.776 67.6713 185.663 67.3675 186.307 66.7527C186.951 66.138 187.276 65.2866 187.282 64.1987C187.289 63.0893 186.975 62.2234 186.338 61.6008C185.702 60.9569 184.819 60.6315 183.688 60.6245L180.296 60.6037L180.253 67.6436Z" fill="black"/>
<path d="M217.221 86.4616L224.237 68.1092L218.528 65.9265L219.854 62.4593L235.038 68.2645L233.712 71.7317L228.003 69.5491L220.987 87.9015L217.221 86.4616Z" fill="black"/>
<path d="M229.71 91.694L241.814 71.7145L253.802 78.9769L251.995 81.9602L243.373 76.7372L240.223 81.9373L247.886 86.58L246.096 89.5359L238.432 84.8932L234.884 90.7502L243.505 95.9732L241.698 98.9564L229.71 91.694Z" fill="black"/>
<path d="M243.704 100.271L256.475 95.5892L259.469 83.028L262.825 85.9962L261.15 92.333C261.027 92.794 260.895 93.2328 260.755 93.6494C260.628 94.0501 260.526 94.3587 260.449 94.575C260.638 94.4576 260.924 94.3116 261.306 94.1371C261.702 93.9465 262.122 93.7622 262.564 93.5839L268.673 91.1694L271.933 94.0528L259.895 98.4855L256.743 111.804L253.388 108.836L255.202 101.811C255.325 101.35 255.448 100.904 255.573 100.473C255.714 100.056 255.83 99.7319 255.922 99.4996C255.702 99.6189 255.394 99.7737 254.998 99.9643C254.602 100.155 254.182 100.339 253.74 100.517L246.964 103.154L243.704 100.271Z" fill="black"/>
<path d="M261.518 117.735L276.955 105.579L273.173 100.777L276.089 98.4806L286.147 111.252L283.23 113.549L279.449 108.747L264.013 120.903L261.518 117.735Z" fill="black"/>
<path d="M279.761 152.372C279.309 150.949 279.175 149.614 279.361 148.369C279.573 147.137 280.074 146.071 280.862 145.171C281.677 144.285 282.755 143.628 284.097 143.202L293.794 140.116C295.156 139.683 296.416 139.596 297.573 139.855C298.736 140.134 299.75 140.718 300.615 141.607C301.507 142.509 302.179 143.672 302.632 145.095C303.091 146.539 303.211 147.866 302.992 149.078C302.8 150.303 302.31 151.366 301.521 152.266C300.733 153.166 299.658 153.832 298.296 154.266L297.073 150.423C298.131 150.087 298.843 149.547 299.211 148.803C299.585 148.08 299.607 147.199 299.277 146.163C298.948 145.126 298.418 144.41 297.688 144.016C296.958 143.621 296.074 143.589 295.037 143.918L285.31 147.013C284.273 147.343 283.561 147.883 283.173 148.634C282.784 149.384 282.755 150.277 283.085 151.314C283.415 152.351 283.952 153.053 284.696 153.421C285.446 153.809 286.34 153.838 287.376 153.508L289.633 152.791L288.43 149.009L291.723 147.962L294.149 155.585L288.599 157.351C287.257 157.778 285.994 157.855 284.811 157.582C283.647 157.303 282.623 156.722 281.738 155.84C280.879 154.971 280.221 153.815 279.761 152.372Z" fill="black"/>
<path d="M282.894 162.573L306.062 159.579L307.858 173.48L304.399 173.927L303.107 163.93L297.077 164.709L298.225 173.595L294.798 174.038L293.65 165.152L286.858 166.029L288.15 176.026L284.691 176.473L282.894 162.573Z" fill="black"/>
<path d="M284.806 180.986L308.135 182.177L307.886 187.067L288.699 192.592C289.384 192.563 290.187 192.529 291.107 192.491C292.048 192.475 292.999 192.47 293.96 192.476C294.942 192.483 295.795 192.506 296.52 192.543L307.577 193.107L307.391 196.75L284.062 195.559L284.311 190.67L303.495 185.209C302.875 185.22 302.126 185.235 301.249 185.254C300.373 185.274 299.475 185.281 298.557 185.277C297.638 185.273 296.796 185.251 296.029 185.212L284.62 184.63L284.806 180.986Z" fill="black"/>
<path d="M283.456 199.036L306.198 204.374L302.996 218.019L299.6 217.222L301.903 207.408L295.984 206.019L293.937 214.742L290.572 213.952L292.619 205.229L285.953 203.665L283.649 213.478L280.254 212.681L283.456 199.036Z" fill="black"/>
<path d="M279.011 216.404L300.435 225.717L297.488 232.496C296.867 233.924 296.067 235.042 295.088 235.849C294.101 236.676 293 237.175 291.786 237.345C290.592 237.524 289.349 237.332 288.058 236.771C286.649 236.159 285.564 235.257 284.803 234.065C284.033 232.893 283.687 231.603 283.764 230.194L272.875 230.52L274.661 226.412L284.792 226.384L285.927 223.772L277.417 220.073L279.011 216.404ZM289.156 225.175L287.803 228.286C287.353 229.323 287.283 230.258 287.596 231.092C287.908 231.926 288.563 232.559 289.561 232.993C290.578 233.435 291.498 233.486 292.32 233.146C293.163 232.814 293.809 232.13 294.26 231.093L295.612 227.982L289.156 225.175Z" fill="black"/>
<path d="M271.713 232.56L287.856 250.442L284.991 254.724L262.283 246.656L264.561 243.252L269.98 245.337L273.432 240.177L269.436 235.964L271.713 232.56ZM275.736 242.604L273.102 246.54L279.098 248.857C280.098 249.243 280.991 249.597 281.777 249.918C282.581 250.25 283.161 250.497 283.515 250.657C283.232 250.39 282.783 249.949 282.168 249.332C281.56 248.746 280.901 248.061 280.192 247.279L275.736 242.604Z" fill="black"/>
<path d="M257.323 251.772L271.441 265.437L275.691 261.045L278.359 263.627L267.053 275.308L264.386 272.726L268.636 268.334L254.519 254.669L257.323 251.772Z" fill="black"/>
<path d="M247.603 261.2L261.217 280.183L249.828 288.351L247.795 285.517L255.986 279.642L252.443 274.702L245.162 279.924L243.147 277.115L250.428 271.893L246.437 266.328L238.246 272.203L236.213 269.369L247.603 261.2Z" fill="black"/>
<path d="M232.857 271.342L242.863 292.45L236.589 295.424C235.162 296.101 233.8 296.416 232.504 296.369C231.188 296.332 230.007 295.959 228.963 295.25C227.919 294.541 227.077 293.512 226.437 292.163L222.695 284.269C222.064 282.938 221.801 281.635 221.904 280.359C222.016 279.101 222.47 277.942 223.265 276.88C224.05 275.847 225.156 274.992 226.582 274.316L232.857 271.342ZM230.819 276.38L228.159 277.641C227.118 278.135 226.426 278.817 226.083 279.688C225.75 280.578 225.825 281.534 226.309 282.555L230.051 290.449C230.527 291.452 231.21 292.096 232.101 292.382C233.001 292.687 233.971 292.593 235.012 292.099L237.673 290.838L230.819 276.38Z" fill="black"/>
<path d="M197.913 283.327L198.207 286.835L193.519 287.228L194.882 303.491L199.57 303.098L199.864 306.606L186.471 307.728L186.177 304.22L190.864 303.828L189.501 287.565L184.814 287.958L184.52 284.45L197.913 283.327Z" fill="black"/>
<path d="M179.496 284.405L177.259 307.658L172.386 307.189L167.727 287.774C167.726 288.459 167.723 289.263 167.72 290.184C167.694 291.125 167.656 292.075 167.607 293.034C167.555 294.015 167.495 294.867 167.426 295.589L166.365 306.61L162.734 306.261L164.971 283.008L169.844 283.477L174.439 302.886C174.456 302.266 174.474 301.518 174.494 300.641C174.514 299.764 174.547 298.867 174.592 297.95C174.638 297.033 174.697 296.192 174.771 295.427L175.865 284.056L179.496 284.405Z" fill="black"/>
<path d="M144.258 276.971L133.994 297.955L120.944 291.572L122.575 288.237L132.089 292.892L134.831 287.286L126.064 282.998L127.695 279.663L136.405 283.924L140.665 275.214L144.258 276.971Z" fill="black"/>
<path d="M127.724 268.395L125.637 271.23L121.849 268.442L112.175 281.586L115.964 284.374L113.878 287.209L103.053 279.243L105.139 276.408L108.928 279.196L118.601 266.052L114.813 263.264L116.899 260.429L127.724 268.395Z" fill="black"/>
<path d="M108.281 251.473C109.306 252.558 110.005 253.702 110.378 254.905C110.721 256.107 110.733 257.285 110.413 258.438C110.063 259.59 109.377 260.649 108.353 261.616L100.955 268.603C99.9157 269.584 98.8188 270.209 97.6642 270.478C96.4949 270.731 95.3278 270.645 94.1629 270.22C92.9678 269.793 91.8576 269.037 90.8322 267.951C89.7922 266.85 89.1081 265.706 88.7798 264.52C88.4214 263.332 88.402 262.162 88.7217 261.009C89.0414 259.857 89.7208 258.789 90.76 257.808L93.5284 260.739C92.7219 261.501 92.3143 262.297 92.3057 263.127C92.2824 263.941 92.6443 264.743 93.3913 265.534C94.1384 266.325 94.9264 266.74 95.7553 266.779C96.5842 266.818 97.3941 266.464 98.1851 265.717L105.607 258.708C106.398 257.961 106.805 257.165 106.829 256.321C106.853 255.476 106.492 254.658 105.745 253.867C104.998 253.076 104.209 252.677 103.38 252.668C102.535 252.644 101.718 253.005 100.927 253.752L99.205 255.378L101.929 258.263L99.4169 260.636L93.9239 254.82L98.1581 250.821C99.1818 249.854 100.286 249.237 101.471 248.969C102.64 248.716 103.815 248.795 104.995 249.206C106.146 249.616 107.241 250.371 108.281 251.473Z" fill="black"/>
<path d="M101.198 243.896L81.6239 256.645L79.0391 252.677L84.0025 246.694C84.5001 246.09 84.9731 245.566 85.4217 245.121C85.8702 244.676 86.1991 244.36 86.4082 244.173C86.1408 244.271 85.713 244.435 85.1248 244.665C84.5249 244.878 83.8539 245.098 83.1118 245.327L75.6859 247.529L73.1011 243.56L92.6753 230.811L94.7187 233.948L88.6319 237.913C87.7381 238.495 86.7522 239.111 85.6743 239.763C84.5847 240.396 83.4892 241.02 82.388 241.636C81.2867 242.251 80.2391 242.832 79.2451 243.377C78.2394 243.905 77.3558 244.366 76.5942 244.76L87.574 241.389L89.4777 244.312L81.9908 253.046C82.6118 252.514 83.358 251.901 84.2294 251.206C85.0828 250.523 86.0136 249.802 87.0217 249.043C88.012 248.296 89.0259 247.547 90.0635 246.795C91.1012 246.043 92.1026 245.352 93.0679 244.723L99.1547 240.759L101.198 243.896Z" fill="black"/>
<path d="M91.7793 228.972L67.9623 232.593L65.9665 227.843L85.2093 213.336L86.796 217.112L82.0701 220.486L84.475 226.21L90.1926 225.196L91.7793 228.972ZM81.1807 226.796L79.3461 222.429L74.1092 226.157C73.2364 226.778 72.4495 227.329 71.7486 227.808C71.028 228.296 70.5031 228.644 70.1739 228.852C70.5527 228.762 71.1685 228.631 72.0213 228.457C72.8462 228.273 73.7803 228.1 74.8235 227.94L81.1807 226.796Z" fill="black"/>
<path d="M73.3219 185.867C73.369 187.082 73.0237 188.088 72.286 188.885C71.5483 189.682 70.572 190.104 69.3569 190.152C68.1418 190.199 67.1357 189.853 66.3385 189.116C65.5413 188.378 65.1192 187.402 65.0721 186.187C65.025 184.972 65.3702 183.965 66.1079 183.168C66.8456 182.371 67.822 181.949 69.0371 181.902C70.2521 181.855 71.2583 182.2 72.0554 182.938C72.8526 183.675 73.2748 184.652 73.3219 185.867Z" fill="black"/>
</svg>
